HIERARCHY
ROOT Hips
{
	OFFSET 0.000000 0.000000 0.000000
	CHANNELS 6 Xposition Yposition Zposition Zrotation Xrotation Yrotation
	JOINT Spine1
	{
		OFFSET 0.000000 -0.000001 5.553894
		CHANNELS 6 Xposition Yposition Zposition Zrotation Xrotation Yrotation
		JOINT Neck
		{
			OFFSET 0.000000 -0.000001 4.427760
			CHANNELS 6 Xposition Yposition Zposition Zrotation Xrotation Yrotation
			JOINT Head
			{
				OFFSET 0.000000 -0.363272 2.815360
				CHANNELS 6 Xposition Yposition Zposition Zrotation Xrotation Yrotation
				End Site
				{
					OFFSET 0.000000 -0.000001 3.632711
				}
			}
		}
		JOINT LeftShoulder
		{
			OFFSET 0.731534 0.096024 3.575179
			CHANNELS 6 Xposition Yposition Zposition Zrotation Xrotation Yrotation
			JOINT LeftArm
			{
				OFFSET 2.610320 0.000000 0.000000
				CHANNELS 6 Xposition Yposition Zposition Zrotation Xrotation Yrotation
				JOINT LeftForeArm
				{
					OFFSET 5.118420 0.000000 0.000000
					CHANNELS 6 Xposition Yposition Zposition Zrotation Xrotation Yrotation
					JOINT LeftHand
					{
						OFFSET 4.756899 0.000000 0.000000
						CHANNELS 6 Xposition Yposition Zposition Zrotation Xrotation Yrotation
						End Site
						{
							OFFSET 2.724534 0.000000 0.000000
						}
					}
				}
			}
		}
		JOINT RightShoulder
		{
			OFFSET -0.721442 0.096024 3.575179
			CHANNELS 6 Xposition Yposition Zposition Zrotation Xrotation Yrotation
			JOINT RightArm
			{
				OFFSET -2.610320 0.000000 0.000000
				CHANNELS 6 Xposition Yposition Zposition Zrotation Xrotation Yrotation
				JOINT RightForeArm
				{
					OFFSET -5.118420 0.000000 0.000000
					CHANNELS 6 Xposition Yposition Zposition Zrotation Xrotation Yrotation
					JOINT RightHand
					{
						OFFSET -4.756900 0.000000 0.000000
						CHANNELS 6 Xposition Yposition Zposition Zrotation Xrotation Yrotation
						End Site
						{
							OFFSET -2.724534 0.000000 0.000000
						}
					}
				}
			}
		}
	}
	JOINT LeftUpLeg
	{
		OFFSET 1.816360 0.000000 0.000000
		CHANNELS 6 Xposition Yposition Zposition Zrotation Xrotation Yrotation
		JOINT LeftLeg
		{
			OFFSET 0.000000 0.000001 -7.638980
			CHANNELS 6 Xposition Yposition Zposition Zrotation Xrotation Yrotation
			JOINT LeftFoot
			{
				OFFSET 0.000000 0.000001 -8.008600
				CHANNELS 6 Xposition Yposition Zposition Zrotation Xrotation Yrotation
				JOINT LeftToeBase
				{
					OFFSET 0.000000 -2.724540 -1.180634
					CHANNELS 6 Xposition Yposition Zposition Zrotation Xrotation Yrotation
					End Site
					{
						OFFSET 0.000000 -0.726542 0.000000
					}
				}
			}
		}
	}
	JOINT RightUpLeg
	{
		OFFSET -1.816360 0.000000 0.000000
		CHANNELS 6 Xposition Yposition Zposition Zrotation Xrotation Yrotation
		JOINT RightLeg
		{
			OFFSET 0.000000 0.000001 -7.638980
			CHANNELS 6 Xposition Yposition Zposition Zrotation Xrotation Yrotation
			JOINT RightFoot
			{
				OFFSET 0.000000 0.000001 -8.008600
				CHANNELS 6 Xposition Yposition Zposition Zrotation Xrotation Yrotation
				JOINT RightToeBase
				{
					OFFSET 0.000000 -2.724540 -1.180634
					CHANNELS 6 Xposition Yposition Zposition Zrotation Xrotation Yrotation
					End Site
					{
						OFFSET 0.000000 -0.726542 0.000000
					}
				}
			}
		}
	}
}
MOTION
Frames: 10
Frame Time: 0.041667
-0.789533 -0.416905 15.157140 -1.236377 18.402621 -1.972621 0.000000 -0.000001 5.553893 -4.523358 -19.530489 -12.425653 0.000000 -0.000001 4.427763 -4.192009 10.861105 -3.999156 0.000001 -0.363273 2.815361 -2.771168 -0.230212 10.060342 0.731534 0.096024 3.575179 0.170578 -3.752245 -17.611178 2.610320 0.000001 -0.000001 -6.506474 -12.273477 8.733446 5.118420 0.000001 -0.000003 -1.372706 -13.020348 -0.195660 4.756900 -0.000001 0.000002 13.983658 -13.443402 -3.523162 -0.721441 0.096024 3.575183 -4.150317 -1.344006 13.701608 -2.610320 -0.000000 0.000002 27.337989 21.999812 -17.145698 -5.118420 -0.000001 -0.000004 70.090206 32.766036 37.388158 -4.756902 -0.000001 -0.000002 -2.238921 6.282814 34.264071 1.816360 0.000000 -0.000001 17.721030 -35.801751 -13.612334 -0.000000 0.000001 -7.638979 16.216300 28.971484 2.399733 -0.000000 0.000000 -8.008601 18.108040 6.105233 7.224659 0.000001 -2.724539 -1.180633 0.000001 -0.000004 -0.000001 -1.816360 0.000000 -0.000000 12.819281 -26.851372 33.422807 0.000001 0.000002 -7.638980 -20.187083 28.061733 -11.814080 -0.000000 0.000001 -8.008600 -27.014290 -1.554538 -13.054191 -0.000000 -2.724539 -1.180634 -0.000003 -0.000001 -0.000001 
-0.793404 -0.417982 15.155267 -1.168606 18.388625 -1.922339 0.000000 -0.000001 5.553892 -4.488238 -19.546965 -12.339166 -0.000001 -0.000001 4.427760 -3.932912 10.915641 -3.734399 0.000000 -0.363272 2.815362 -2.567062 -0.083065 9.804036 0.731533 0.096024 3.575178 0.185779 -3.896042 -17.538824 2.610319 -0.000000 0.000002 -6.887574 -12.248357 8.478503 5.118418 0.000002 -0.000003 -1.399789 -12.954040 -0.146424 4.756899 -0.000002 -0.000004 13.926651 -13.399914 -3.733294 -0.721442 0.096024 3.575180 -4.167625 -1.376240 13.758522 -2.610320 -0.000000 -0.000000 27.406750 21.969565 -17.453741 -5.118420 -0.000002 -0.000004 70.048426 32.731643 37.351101 -4.756903 0.000000 0.000001 -2.328022 6.268269 34.233075 1.816360 -0.000000 -0.000001 17.943042 -35.896462 -13.484652 0.000000 0.000000 -7.638980 16.096483 28.963462 2.260249 0.000001 0.000001 -8.008599 17.981474 6.111715 7.213192 -0.000000 -2.724539 -1.180632 -0.000003 -0.000005 0.000000 -1.816360 -0.000000 -0.000001 12.788830 -26.835781 33.343945 0.000001 0.000001 -7.638980 -20.239647 28.105124 -11.778016 -0.000000 0.000001 -8.008599 -27.027894 -1.601057 -13.044878 0.000000 -2.724539 -1.180634 0.000001 -0.000001 -0.000001 
-0.796863 -0.419014 15.153671 -1.117008 18.386280 -1.863354 0.000000 -0.000002 5.553895 -4.425002 -19.580284 -12.242007 0.000001 -0.000001 4.427763 -3.689538 10.988938 -3.367196 0.000000 -0.363273 2.815359 -2.399476 0.042519 9.395885 0.731534 0.096024 3.575180 0.192492 -4.040738 -17.471749 2.610320 0.000000 0.000004 -7.286378 -12.103378 8.227950 5.118421 -0.000000 0.000002 -1.439547 -12.931336 -0.116026 4.756899 -0.000001 0.000001 13.945539 -13.394015 -3.871589 -0.721442 0.096024 3.575177 -4.188321 -1.379193 13.832952 -2.610320 -0.000000 0.000000 27.499909 22.004443 -17.812314 -5.118419 -0.000002 -0.000001 69.878334 32.728040 37.475045 -4.756903 0.000002 0.000004 -2.348888 6.246173 34.237078 1.816360 -0.000000 0.000000 17.958017 -35.957124 -13.520688 -0.000000 0.000001 -7.638980 16.029568 28.979782 2.247131 0.000001 0.000000 -8.008601 17.945209 6.077977 7.236761 0.000000 -2.724540 -1.180632 -0.000003 -0.000002 0.000001 -1.816360 -0.000000 -0.000000 12.764937 -26.826984 33.274878 0.000001 0.000001 -7.638982 -20.235110 28.130119 -11.791874 0.000000 0.000001 -8.008599 -27.083013 -1.633040 -13.071398 0.000000 -2.724539 -1.180633 0.000002 -0.000002 0.000000 
-0.800519 -0.420639 15.152330 -1.048249 18.389207 -1.803284 0.000000 -0.000000 5.553895 -4.342523 -19.640632 -12.094273 0.000000 -0.000000 4.427763 -3.437276 11.087281 -3.042580 -0.000001 -0.363274 2.815358 -2.220058 0.170531 8.993940 0.731534 0.096025 3.575180 0.166631 -4.186171 -17.481637 2.610321 -0.000000 -0.000000 -7.678088 -12.052432 8.015148 5.118418 0.000001 -0.000003 -1.440826 -12.843718 -0.053941 4.756900 -0.000002 0.000001 13.939049 -13.321149 -4.002141 -0.721442 0.096025 3.575182 -4.191418 -1.401318 13.863909 -2.610321 -0.000001 -0.000001 27.478027 21.877878 -18.152845 -5.118419 -0.000002 -0.000000 69.970848 32.720820 37.288666 -4.756902 -0.000000 0.000001 -2.396923 6.328246 34.182225 1.816360 0.000000 -0.000000 17.848558 -36.005588 -13.644029 -0.000000 0.000001 -7.638979 15.962384 29.008090 2.311216 0.000000 0.000001 -8.008599 17.987489 6.059950 7.191463 0.000001 -2.724540 -1.180634 0.000000 -0.000000 -0.000000 -1.816360 0.000000 -0.000000 12.735255 -26.809035 33.200405 -0.000001 0.000001 -7.638980 -20.324157 28.159378 -11.767380 -0.000000 0.000001 -8.008599 -27.076101 -1.664206 -13.090150 0.000000 -2.724540 -1.180633 -0.000001 -0.000002 -0.000000 
-0.802602 -0.421636 15.151840 -1.006116 18.397681 -1.729411 0.000000 -0.000001 5.553893 -4.260222 -19.694760 -11.970455 -0.000000 -0.000001 4.427758 -3.199308 11.208787 -2.599273 0.000000 -0.363274 2.815360 -2.071321 0.237075 8.446977 0.731534 0.096024 3.575177 0.209854 -4.342665 -17.430588 2.610320 -0.000000 0.000001 -8.159562 -12.121308 7.741365 5.118421 0.000001 0.000001 -1.372213 -12.671134 0.033970 4.756900 -0.000003 0.000001 13.896274 -13.165221 -4.161034 -0.721442 0.096024 3.575179 -4.184264 -1.406380 13.906344 -2.610320 -0.000001 -0.000001 27.502626 21.897703 -18.522906 -5.118421 -0.000002 -0.000003 69.886789 32.738616 37.358990 -4.756902 0.000002 0.000000 -2.467161 6.315295 34.156297 1.816360 0.000000 0.000000 17.821017 -36.068658 -13.708506 0.000001 0.000001 -7.638979 15.905472 29.021921 2.303875 0.000001 -0.000000 -8.008600 17.984779 6.028450 7.222584 0.000000 -2.724540 -1.180634 -0.000001 0.000001 -0.000000 -1.816360 -0.000000 -0.000002 12.709131 -26.797021 33.126530 0.000000 0.000001 -7.638981 -20.361602 28.162501 -11.784846 0.000000 0.000001 -8.008601 -27.097087 -1.660200 -13.087184 -0.000000 -2.724539 -1.180634 0.000001 0.000001 -0.000003 
-0.803469 -0.423943 15.151528 -0.972335 18.380461 -1.674049 0.000000 -0.000001 5.553892 -4.136451 -19.740983 -11.800512 -0.000001 -0.000001 4.427761 -2.968659 11.364117 -2.078939 -0.000001 -0.363272 2.815361 -1.944226 0.291229 7.790186 0.731534 0.096024 3.575182 0.260328 -4.437803 -17.360432 2.610321 -0.000000 0.000002 -8.660281 -12.113446 7.402537 5.118421 -0.000001 -0.000001 -1.320680 -12.568017 0.168246 4.756900 -0.000001 -0.000002 13.958881 -13.086342 -4.356016 -0.721443 0.096024 3.575180 -4.226987 -1.314563 14.007340 -2.610320 -0.000001 -0.000001 27.605704 21.680383 -18.979159 -5.118419 -0.000001 -0.000001 69.778135 32.766706 37.362159 -4.756902 -0.000000 0.000001 -2.480652 6.399234 34.157335 1.816360 0.000000 -0.000002 17.776503 -36.067589 -13.777588 -0.000000 0.000001 -7.638980 15.795697 29.009039 2.354844 0.000000 0.000001 -8.008600 18.050339 5.988391 7.213837 0.000000 -2.724539 -1.180632 0.000002 -0.000001 -0.000001 -1.816360 0.000000 -0.000003 12.669740 -26.753422 33.060721 0.000001 0.000001 -7.638980 -20.389218 28.149354 -11.802303 0.000001 0.000002 -8.008599 -27.099269 -1.657598 -13.075076 0.000001 -2.724540 -1.180632 -0.000001 -0.000002 0.000000 
-0.803776 -0.425757 15.151278 -0.959984 18.359567 -1.619444 -0.000000 -0.000001 5.553893 -3.955598 -19.795555 -11.598125 0.000000 -0.000000 4.427759 -2.733989 11.454258 -1.533409 0.000000 -0.363272 2.815361 -1.827662 0.409766 7.038625 0.731534 0.096025 3.575179 0.323433 -4.590139 -17.326308 2.610319 -0.000001 0.000003 -9.202619 -12.042774 7.091301 5.118419 -0.000001 -0.000005 -1.267277 -12.415050 0.322022 4.756899 -0.000001 0.000001 13.941138 -12.936682 -4.399847 -0.721442 0.096025 3.575179 -4.258614 -1.286202 14.052921 -2.610320 -0.000000 0.000001 27.673773 21.667218 -19.426281 -5.118419 0.000001 -0.000003 69.700516 32.778320 37.469994 -4.756902 -0.000001 0.000000 -2.573563 6.337293 34.164828 1.816360 -0.000000 0.000000 17.745115 -36.069146 -13.834053 -0.000000 0.000001 -7.638981 15.764259 29.008162 2.342721 0.000000 0.000001 -8.008599 18.072269 5.981121 7.174321 0.000001 -2.724540 -1.180633 0.000005 -0.000003 0.000001 -1.816360 -0.000000 0.000000 12.634258 -26.718776 32.993280 0.000000 0.000001 -7.638980 -20.416458 28.133676 -11.807999 -0.000000 0.000001 -8.008599 -27.093690 -1.646062 -13.070303 0.000000 -2.724540 -1.180632 0.000002 -0.000002 -0.000002 
-0.803293 -0.427866 15.150668 -0.966646 18.324600 -1.573006 -0.000000 -0.000001 5.553894 -3.729028 -19.853710 -11.372280 0.000000 -0.000000 4.427761 -2.455068 11.521757 -0.920239 -0.000000 -0.363273 2.815359 -1.685873 0.590675 6.155953 0.731534 0.096024 3.575181 0.405797 -4.724873 -17.278376 2.610320 0.000000 0.000001 -9.808256 -11.954133 6.759185 5.118422 0.000000 -0.000003 -1.190884 -12.268165 0.469716 4.756899 -0.000001 -0.000002 13.937010 -12.794447 -4.448506 -0.721442 0.096024 3.575179 -4.359085 -1.174866 14.125176 -2.610321 -0.000001 0.000003 27.763051 21.428189 -19.862820 -5.118419 -0.000001 -0.000002 69.706541 32.784843 37.422576 -4.756903 0.000001 0.000001 -2.663098 6.355751 34.065234 1.816360 0.000000 -0.000002 17.704945 -36.037461 -13.903278 0.000000 0.000001 -7.638980 15.772578 29.006051 2.339799 -0.000000 0.000000 -8.008599 18.050725 5.934002 7.183049 0.000001 -2.724539 -1.180633 0.000002 -0.000002 0.000001 -1.816360 0.000000 0.000000 12.598053 -26.678017 32.933755 -0.000000 0.000001 -7.638980 -20.456922 28.123533 -11.801912 -0.000000 0.000001 -8.008599 -27.046910 -1.637405 -13.052171 0.000001 -2.724539 -1.180633 0.000001 -0.000001 0.000000 
-0.801784 -0.430232 15.150416 -0.987224 18.263472 -1.526588 0.000000 -0.000001 5.553893 -3.441918 -19.914463 -11.086493 -0.000000 -0.000000 4.427760 -2.217972 11.658651 -0.307230 0.000000 -0.363273 2.815359 -1.586063 0.695073 5.213778 0.731533 0.096024 3.575178 0.485614 -4.855493 -17.291677 2.610319 -0.000000 0.000002 -10.402206 -11.982183 6.441510 5.118420 -0.000001 -0.000003 -1.112335 -12.030822 0.628933 4.756899 0.000000 0.000001 13.983484 -12.564112 -4.497982 -0.721442 0.096024 3.575181 -4.367787 -1.080121 14.150533 -2.610320 -0.000001 -0.000002 27.753760 21.288409 -20.367853 -5.118421 -0.000000 -0.000004 69.702934 32.839734 37.465702 -4.756902 -0.000000 -0.000001 -2.723415 6.367917 34.105955 1.816360 0.000001 -0.000001 17.666395 -35.971796 -13.974173 -0.000001 0.000001 -7.638980 15.783298 28.996400 2.332059 0.000000 0.000000 -8.008600 18.069230 5.902971 7.167725 -0.000000 -2.724539 -1.180634 -0.000000 0.000002 0.000002 -1.816360 -0.000000 -0.000002 12.555494 -26.619484 32.880838 -0.000001 0.000001 -7.638980 -20.428391 28.108373 -11.842031 0.000001 0.000001 -8.008601 -27.042444 -1.613305 -13.058689 0.000000 -2.724540 -1.180633 -0.000004 -0.000002 -0.000000 
-0.799157 -0.432027 15.150088 -1.031991 18.207674 -1.502582 0.000000 -0.000000 5.553894 -3.120659 -19.965816 -10.785899 0.000000 -0.000001 4.427760 -1.989228 11.794910 0.416483 0.000000 -0.363273 2.815357 -1.510087 0.778687 4.135941 0.731535 0.096024 3.575179 0.575134 -4.947778 -17.206773 2.610319 0.000000 -0.000005 -11.022143 -11.938490 6.023017 5.118421 -0.000000 0.000000 -1.067270 -11.877927 0.769201 4.756899 -0.000001 -0.000002 14.030697 -12.408324 -4.464676 -0.721442 0.096024 3.575177 -4.416236 -0.971150 14.203466 -2.610321 -0.000000 0.000003 27.777951 21.064023 -20.865658 -5.118420 0.000000 0.000001 69.744462 32.877508 37.444791 -4.756902 0.000000 0.000001 -2.780710 6.393978 33.967272 1.816360 0.000001 -0.000001 17.672481 -35.894758 -13.999225 -0.000000 0.000000 -7.638978 15.779124 28.974182 2.323208 -0.000000 0.000001 -8.008599 18.092616 5.867486 7.169376 0.000000 -2.724539 -1.180634 -0.000001 -0.000000 0.000001 -1.816360 0.000000 -0.000001 12.526235 -26.581570 32.841728 -0.000000 0.000002 -7.638981 -20.415686 28.097353 -11.836205 0.000000 0.000001 -8.008597 -27.002043 -1.597373 -13.036971 0.000000 -2.724539 -1.180633 0.000001 -0.000003 0.000000 
